<?xml version="1.0" encoding="UTF-8"?>
<svg width="14px" height="14px" viewBox="0 0 14 14" version="1.1" xmlns="http://www.w3.org/2000/svg" xmlns:xlink="http://www.w3.org/1999/xlink">
    <!-- Generator: Sketch 52.4 (67378) - http://www.bohemiancoding.com/sketch -->
    <title>指缘地点3</title>
    <desc>Created with Sketch.</desc>
    <g id="视觉" stroke="none" stroke-width="1" fill="none" fill-rule="evenodd">
        <g id="1登陆界面" transform="translate(-31.000000, -288.000000)" fill="#BDBDBD">
            <g id="指缘地点3" transform="translate(31.000000, 288.000000)">
                <rect id="矩形" opacity="0" x="0" y="0" width="14" height="14"></rect>
                <path d="M11.7161814,5.27709613 C11.7083048,5.98795416 11.4812947,6.63791149 11.1746506,7.2651762 C10.7151881,8.2051429 10.1051177,9.04509141 9.44203731,9.8485247 C8.82477582,10.5964716 8.16238091,11.3026148 7.45538426,11.9666186 C7.20832577,12.1985814 6.98288262,12.2057025 6.72961234,11.9783707 C5.41821146,10.8013906 4.23965053,9.51100354 3.34001849,7.98452648 C3.19360776,7.73611091 3.06087975,7.48001454 2.94656325,7.2150202 C2.83822071,6.9638485 2.93164937,6.70112063 3.16557076,6.59265217 C3.4001637,6.48386193 3.66973294,6.57929124 3.78385357,6.82751094 C4.32153702,7.99679616 5.10801379,8.99036052 5.9674511,9.93266364 C6.29883043,10.2959973 6.64599105,10.6440533 7.00536539,10.9799096 C7.04981326,11.0214055 7.07778029,11.0551226 7.14091949,10.9915357 C8.33186203,9.79152732 9.44685007,8.53151362 10.2585937,7.03370313 C10.4952153,6.59708715 10.6925095,6.14084249 10.7586007,5.64367557 C10.8581992,4.8942177 10.7076752,4.18120512 10.3521343,3.52353902 C9.67500737,2.27096826 8.62396998,1.55666856 7.18945258,1.5063027 C5.55529054,1.44895558 4.10331298,2.50426008 3.58897971,4.06273343 C3.4597773,4.45424399 3.39134971,4.85549194 3.38601931,5.26780639 C3.3822139,5.56258653 3.18893494,5.77072341 2.92252756,5.77003788 C2.65528076,5.76939431 2.46014106,5.55638873 2.46092453,5.26633738 C2.46696842,3.07395382 3.97707658,1.1747135 6.10528565,0.682932934 C7.86606181,0.276004873 9.75227695,1.00775075 10.8180324,2.50956252 C11.4067252,3.3390881 11.6991969,4.26377716 11.7161814,5.27709613 Z M1.87272129,12.5991578 C5.35585572,12.5991578 8.81899771,12.5991578 12.2851057,12.5991578 C12.2845881,12.5392924 12.2451488,12.5002029 12.2201617,12.4563706 C11.7682681,11.6627447 11.3153812,10.8696224 10.8616828,10.0770178 C10.7643228,9.90696308 10.7582929,9.73760791 10.8666074,9.57313541 C10.9641773,9.4249199 11.1072163,9.35319053 11.2851057,9.36537628 C11.4449613,9.3764008 11.570764,9.45491557 11.6498944,9.59290402 C12.2691425,10.6729997 12.8891741,11.7526617 13.5020006,12.8363809 C13.6911804,13.1709781 13.457259,13.528016 13.0594247,13.5281139 C10.9869539,13.5287995 8.91448298,13.5284357 6.84206808,13.5284357 C4.9479343,13.5284357 3.05370259,13.5189501 1.1597367,13.5357248 C0.734662906,13.5395162 0.474047602,13.1513634 0.707717172,12.7582019 C1.3191866,11.7294374 1.90043651,10.6827091 2.49437582,9.64349371 C2.6222911,9.41971543 2.82224353,9.32143207 3.03163956,9.37581321 C3.34133358,9.45637059 3.47610421,9.78516167 3.31196749,10.0754648 C2.9949844,10.6362187 2.67339844,11.1943842 2.35403697,11.753781 C2.19700744,12.0288484 2.04062146,12.3042098 1.87272129,12.5991578 Z M8.93843474,5.19957469 C8.93854665,6.22187557 8.10437623,7.05287015 7.08034052,7.05056172 C6.06507687,7.04829526 5.2369923,6.21679702 5.23702029,5.19970061 C5.23707625,4.17622453 6.06919008,3.34725856 7.09462484,3.34917527 C8.10983253,3.35104999 8.9383508,4.18256222 8.93843474,5.19957469 Z M7.0933657,4.27453586 C6.5794941,4.27467577 6.16333226,4.68747989 6.16247883,5.19788183 C6.16162541,5.71404787 6.58411097,6.13002783 7.1042643,6.12514514 C7.60371168,6.12045831 8.01520069,5.69889614 8.01304615,5.19414636 C8.01089162,4.69022203 7.59509353,4.27442395 7.0933657,4.27453586 Z" id="形状" fill-rule="nonzero"></path>
            </g>
        </g>
    </g>
</svg>