<?xml version="1.0" encoding="UTF-8"?>
<svg width="21px" height="19px" viewBox="0 0 21 19" version="1.1" xmlns="http://www.w3.org/2000/svg" xmlns:xlink="http://www.w3.org/1999/xlink">
    <!-- Generator: Sketch 52.4 (67378) - http://www.bohemiancoding.com/sketch -->
    <title>课程</title>
    <desc>Created with Sketch.</desc>
    <g id="视觉" stroke="none" stroke-width="1" fill="none" fill-rule="evenodd">
        <g id="3考核-试题" transform="translate(-26.000000, -119.000000)">
            <g id="分组-4" transform="translate(16.000000, 109.000000)">
                <g id="课程" transform="translate(10.000000, 10.000000)">
                    <rect id="矩形" fill="#000000" opacity="0" x="1" y="0" width="19" height="19"></rect>
                    <path d="M10.5000174,14.8528874 C10.3939697,14.8564692 10.2886408,14.8341311 10.1930679,14.7877896 L3.95467826,12.1553779 C3.65183677,12.0312991 3.45375269,11.7353582 3.45347909,11.406578 L3.45347909,0.815000154 C3.45273658,0.542501826 3.58580016,0.28719046 3.8090785,0.132705491 C4.03481891,-0.0172645673 4.32084381,-0.041780176 4.56857724,0.0676077532 L7.99472156,1.51383316 C8.38696003,1.69571615 8.56650511,2.15641358 8.40157282,2.55777897 C8.23664053,2.95914435 7.78602493,3.15810139 7.38047258,3.00861796 L5.07047641,2.03355942 L5.07047641,10.85659 L9.69256875,12.8063553 L9.69256875,3.44635626 C9.69335201,3.11817512 9.89118505,2.82295867 10.1934179,2.69896386 L16.4318076,0.0665521142 C16.6808275,-0.0346653453 16.9629223,-0.0104865889 17.1913063,0.131649852 C17.4174368,0.283575034 17.5513651,0.54054543 17.5469057,0.813944515 L17.5469057,11.406578 C17.5461225,11.7347591 17.3482894,12.0299756 17.0460566,12.1539704 L13.6360122,13.5840093 C13.2304599,13.7334927 12.7798443,13.5345357 12.614912,13.1331703 C12.4499797,12.7318049 12.6295248,12.2711075 13.0217632,12.0892245 L15.9309584,10.8544788 L15.9309584,2.03285566 L11.3081661,3.98191711 L11.3081661,14.023507 C11.3089086,14.2960053 11.175845,14.5513167 10.9525667,14.7058017 C10.8213846,14.8025016 10.6626781,14.8540837 10.5000174,14.8528874 Z M10.5000174,18.9997892 C10.4040096,18.999505 10.3087028,18.9833371 10.2179179,18.9519335 L0.501583983,15.1664121 C0.196225884,15.0442262 -0.00302788614,14.7459068 3.48145933e-05,14.4155009 L3.48145933e-05,4.92741776 C3.48145933e-05,4.49229549 0.350886289,4.13955919 0.783683515,4.13955919 C1.21648074,4.13955919 1.56733222,4.49229549 1.56733222,4.92741776 L1.56733222,13.8563642 L10.5000174,17.3399728 L19.4327026,13.8563642 L19.4327026,5.56607934 C19.4327026,5.13095707 19.7835541,4.77822078 20.2163513,4.77822078 C20.6491485,4.77822078 21,5.13095707 21,5.56607934 L21,14.4151491 C20.9985307,14.744173 20.8008216,15.0401798 20.4984508,15.1660603 L10.7821169,18.9515817 C10.6920344,18.9857109 10.596257,19.0020781 10.5000174,18.9997892 Z" id="形状" fill="#FFFFFF" fill-rule="nonzero"></path>
                </g>
            </g>
        </g>
    </g>
</svg>