<?xml version="1.0" encoding="UTF-8"?>
<svg width="178px" height="126px" viewBox="0 0 178 126" version="1.1" xmlns="http://www.w3.org/2000/svg" xmlns:xlink="http://www.w3.org/1999/xlink">
    <!-- Generator: Sketch 52.4 (67378) - http://www.bohemiancoding.com/sketch -->
    <title>Fill 1</title>
    <desc>Created with Sketch.</desc>
    <g id="页面-1" stroke="none" stroke-width="1" fill="none" fill-rule="evenodd" opacity="0.25">
        <g id="3考核-试题" transform="translate(-197.000000, -97.000000)" fill="#FEFEFE">
            <g id="导航-/iOS/常规">
                <g id="分组">
                    <g style="mix-blend-mode: soft-light;" transform="translate(197.000000, 97.000000)" id="Fill-1">
                        <path d="M185.614822,78.0808246 L167.299557,59.7657843 L167.299557,132.307335 L185.455835,114.151279 C195.452918,104.15432 195.522872,87.9887527 185.614822,78.0808246 Z M7.39711554,114.908046 L25.8395702,133.350274 L25.8395702,60.5607079 L7.55610221,78.8375919 C-2.45369902,88.8536296 -2.53001263,105.000118 7.39711554,114.908046 Z M167.172367,59.6385965 L149.047886,41.5206972 L98.0640382,41.5206972 L98.0640382,24.9290513 L132.462396,24.9290513 L114.922986,7.40893457 C104.995857,-2.53714983 88.8491703,-2.44811838 78.852088,7.54884113 L61.4653049,24.9290513 L79.7169756,24.9290513 L79.7169756,132.167428 L61.8023567,132.167428 L61.8023567,42.4873243 L43.9068162,42.4873243 L26.5645494,59.8357375 L43.7478296,59.8357375 L43.7478296,149.922842 L97.6633918,149.922842 L97.6633918,166.508129 L59.0041912,166.508129 L78.088952,185.605374 C87.9970017,195.526021 104.150048,195.456067 114.159849,185.446389 L133.098343,166.508129 L115.501697,166.508129 L115.501697,113.502621 L97.6951891,113.502621 L97.6951891,95.5882225 L115.501697,95.5882225 L115.501697,95.5182692 L133.409956,95.5182692 L133.409956,166.196519 L151.254621,148.352073 L151.254621,77.5529953 L97.7333459,77.5529953 L97.7333459,59.6385965 L167.172367,59.6385965 Z"></path>
                    </g>
                </g>
            </g>
        </g>
    </g>
</svg>