<?xml version="1.0" encoding="UTF-8"?>
<svg width="15px" height="15px" viewBox="0 0 15 15" version="1.1" xmlns="http://www.w3.org/2000/svg" xmlns:xlink="http://www.w3.org/1999/xlink">
    <!-- Generator: Sketch 52.4 (67378) - http://www.bohemiancoding.com/sketch -->
    <title>Group</title>
    <desc>Created with Sketch.</desc>
    <g id="视觉" stroke="none" stroke-width="1" fill="none" fill-rule="evenodd">
        <g id="1登陆界面" transform="translate(-31.000000, -160.000000)" fill="#BDBDBD">
            <g id="分组-3" transform="translate(20.000000, 145.000000)">
                <g id="Group" transform="translate(11.000000, 15.000000)">
                    <path d="M7.34200161,8.18562388 C7.33263251,8.18562388 7.32334259,8.18562388 7.31407905,8.18541638 C5.58705038,8.17294059 4.04727175,6.99373184 3.62642761,5.41195186 C3.62178264,5.39470362 3.61716407,5.37729976 3.61294138,5.35986997 C3.54704098,5.09837114 3.51199262,4.82665306 3.51199262,4.54751695 C3.51199262,4.26838083 3.54704098,3.99352435 3.61294138,3.72746058 C3.61716407,3.70961578 3.62178264,3.69200443 3.62642761,3.67436713 C4.04954145,2.05298105 5.60365084,0.764239521 7.34200161,0.764239521 L7.36179548,0.764239521 C9.10006708,0.764239521 10.654282,2.05298105 11.0773959,3.67436713 C11.0820145,3.69200443 11.0866594,3.70961578 11.0908821,3.72746058 C11.1567561,3.99352435 11.1918045,4.26838083 11.1918045,4.54751695 C11.1918045,4.82665306 11.1567561,5.09837114 11.0908821,5.35986997 C11.0866594,5.37729976 11.0820145,5.39470362 11.0773959,5.41195186 C10.6565517,6.99373184 9.11677311,8.17294059 7.38963887,8.18541638 C7.37385655,8.18562388 7.35799506,8.18562388 7.34200161,8.18562388 Z M14.6995692,14.484576 C14.5933685,13.7074976 14.3611203,12.9571604 14.0093436,12.254418 C13.9405929,12.1170027 13.8676987,11.9819736 13.7904762,11.8495383 C13.7902914,11.8491493 13.7900803,11.8487083 13.7895525,11.8483452 C13.4547193,11.2909808 13.0438776,10.7734299 12.5650243,10.3115663 L12.5648131,10.3113588 C12.4606973,10.2109559 12.3534673,10.1129651 12.2430703,10.0179312 C11.4557492,9.33993291 10.5467617,8.83708846 9.57749531,8.53131484 C9.75294821,8.43576221 9.92264768,8.32877127 10.0856436,8.21021234 C10.2713102,8.07577985 10.4480035,7.9264594 10.6141928,7.76313287 C11.488,6.90424851 11.9694398,5.76218184 11.9694398,4.54751695 C11.9694398,3.33282612 11.488,2.19078538 10.6141928,1.33192696 C9.75603605,0.488656799 8.62015801,0.0174297967 7.40953831,0.000414995158 C7.39035145,0.000207497579 7.37108541,0 7.35189855,0 C7.33263251,0 7.31344565,0.000207497579 7.29428518,0.000414995158 C6.08366547,0.0174297967 4.94768187,0.488656799 4.08963064,1.33192696 C3.21582349,2.19078538 2.73435731,3.33282612 2.73435731,4.54751695 C2.73435731,5.76218184 3.21582349,6.90424851 4.08963064,7.76313287 C4.25582,7.9264594 4.43251332,8.07577985 4.61807428,8.21021234 C4.78107024,8.32877127 4.95087528,8.43576221 5.12632818,8.53131484 C4.15706177,8.83708846 3.24807431,9.33993291 2.46075319,10.0179312 C2.35035616,10.1129651 2.24302058,10.2109559 2.13901037,10.3113588 C1.65973471,10.7736374 1.24839162,11.2916033 0.91332093,11.8495383 C0.836124823,11.9819736 0.763230584,12.1170027 0.694374295,12.254418 C0.342597573,12.9571604 0.110455022,13.7074976 0.00414872478,14.484576 C-0.0297647788,14.7335472 0.147957815,14.9623911 0.401161047,14.9958241 C0.421984202,14.9985994 0.442912924,15 0.463445769,15 C0.482210362,15 0.500552685,14.9989884 0.518895007,14.9966541 C0.702001535,14.957463 0.849822183,14.8107363 0.878483712,14.6180488 C1.0917825,13.1796497 1.7893186,11.8725187 2.79199707,10.8771787 C3.98200475,9.69555782 5.60159228,8.95289805 7.35189855,8.94994121 L7.36179548,8.94994121 C9.10830133,8.95580302 10.724194,9.69778842 11.9118264,10.8771787 C12.9143993,11.8725187 13.612041,13.1796497 13.8253398,14.6180488 C13.8540013,14.8103472 14.0012149,14.9568405 14.1837936,14.9964725 C14.1841895,14.9964725 14.1844006,14.9966541 14.1848229,14.9966541 C14.2031652,14.9989884 14.2216131,15 14.2403777,15 C14.2609106,15 14.2817337,14.9985994 14.3026624,14.9958241 C14.5558393,14.9623911 14.7335883,14.7335472 14.6995692,14.484576 Z M14.2443101,3.39314943 C14.2443101,3.396578 14.2443101,3.39989943 14.2451672,3.40364943 C14.2443101,3.38522086 14.2443101,3.36636371 14.2443101,3.34750657 L14.2443101,3.39314943 Z M14.9991429,3.398078 C15,3.39486371 15,3.39068514 15,3.38736371 L15,3.34750657 C15,3.36475657 15,3.38189943 14.9991429,3.398078 Z M14.244706,11.5869983 C14.249313,11.5503758 14.2602414,11.5144921 14.278241,11.4798554 C14.2585271,11.495696 14.2481345,11.5296399 14.244706,11.5869983 Z M2.93612286,7.11192765 C2.89518913,7.11192765 2.86293831,7.13635622 2.83757576,7.17739194 C2.87199071,7.13507051 2.90870175,7.11192765 2.94654763,7.11192765 L2.93612286,7.11192765 Z" id="Fill-1"></path>
                </g>
            </g>
        </g>
    </g>
</svg>