<?xml version="1.0" encoding="UTF-8"?>
<svg width="24px" height="19px" viewBox="0 0 24 19" version="1.1" xmlns="http://www.w3.org/2000/svg" xmlns:xlink="http://www.w3.org/1999/xlink">
    <!-- Generator: Sketch 52.4 (67378) - http://www.bohemiancoding.com/sketch -->
    <title>心</title>
    <desc>Created with Sketch.</desc>
    <g id="视觉" stroke="none" stroke-width="1" fill="none" fill-rule="evenodd">
        <g id="4个人兴趣爱好" transform="translate(-24.000000, -120.000000)">
            <g id="心" transform="translate(24.000000, 117.000000)">
                <rect id="矩形" fill="#000000" opacity="0" x="0" y="0" width="24" height="24"></rect>
                <path d="M12,22.0125 C11.475,22.0125 10.95,21.825 10.5,21.45 C7.8,19.05 3.1875,14.9625 2.7375,14.5125 C1.2375,13.0125 0.5625,10.95 0.825,8.85 C1.2,5.8875 3.6375,3.4125 6.6375,3.0375 C8.625,2.775 10.575,3.4125 12.0375,4.725 C13.5,3.4125 15.45,2.8125 17.4375,3.0375 C20.475,3.4125 22.8375,5.8125 23.25,8.85 C23.5125,10.95 22.8375,13.0125 21.3375,14.5125 C20.8125,14.9625 16.2,19.05 13.5,21.45 C13.05,21.825 12.525,22.0125 12,22.0125 Z M3.7875,13.4625 C4.0875,13.7625 7.05,16.3875 11.5125,20.325 C11.8125,20.5875 12.225,20.5875 12.4875,20.325 C17.025,16.35 19.9125,13.7625 20.2125,13.4625 C21.375,12.3 21.9,10.6875 21.7125,9.0375 C21.4125,6.7125 19.5375,4.8375 17.2125,4.5375 C15.45,4.3125 13.7625,4.95 12.5625,6.2625 C12.2625,6.6 11.7375,6.6 11.4375,6.2625 C10.275,4.9125 8.5875,4.3125 6.7875,4.5375 C4.4625,4.8375 2.5875,6.7125 2.2875,9.0375 C2.1,10.6875 2.625,12.3 3.7875,13.4625 Z M18.6375,12.6375 C18.45,12.6375 18.2625,12.5625 18.1125,12.4125 C17.8125,12.1125 17.8125,11.6625 18.1125,11.3625 C18.525,10.95 18.7875,10.3875 18.7875,9.7875 C18.7875,8.55 17.775,7.5375 16.5375,7.5375 C16.125,7.5375 15.7875,7.2 15.7875,6.7875 C15.7875,6.375 16.125,6.0375 16.5375,6.0375 C18.6,6.0375 20.2875,7.725 20.2875,9.7875 C20.2875,10.8 19.9125,11.7375 19.2,12.45 C19.0125,12.5625 18.825,12.6375 18.6375,12.6375 Z" id="形状" fill="#FFFFFF" fill-rule="nonzero"></path>
            </g>
        </g>
    </g>
</svg>