<?xml version="1.0" encoding="UTF-8"?>
<svg width="13px" height="9px" viewBox="0 0 13 9" version="1.1" xmlns="http://www.w3.org/2000/svg" xmlns:xlink="http://www.w3.org/1999/xlink">
    <!-- Generator: Sketch 52.4 (67378) - http://www.bohemiancoding.com/sketch -->
    <title>单独对号</title>
    <desc>Created with Sketch.</desc>
    <g id="视觉" stroke="none" stroke-width="1" fill="none" fill-rule="evenodd">
        <g id="3考核-试题" transform="translate(-38.000000, -306.000000)">
            <g id="单独对号" transform="translate(38.000000, 304.000000)">
                <rect id="矩形" fill="#000000" opacity="0" x="0" y="0" width="13" height="13"></rect>
                <path d="M5.36202354,10.6613516 C5.1929172,10.8317441 4.91884202,10.8317441 4.75104778,10.6613516 L4.61528982,10.5242296 L4.47058093,10.3781956 L3.83397355,9.73652164 C3.83273938,9.73396238 3.83397355,9.73016894 3.83141429,9.72884385 L0.91889299,6.76768351 C0.749786642,6.59729104 0.749786642,6.32057865 0.91889299,6.15151127 L1.83464211,5.22675926 C2.00373546,5.05653567 2.27779765,5.05653567 2.44686503,5.22675926 L5.0597445,7.88328913 L10.5544211,2.33858344 C10.7222283,2.16828191 10.9963035,2.16828191 11.1653709,2.33858344 L12.081146,3.26333546 C12.2502134,3.43355905 12.2502134,3.70911522 12.081146,3.87933881 L5.36202354,10.6613516 Z" id="路径" fill="#FFFFFF"></path>
            </g>
        </g>
    </g>
</svg>